<svg width="20" height="14" viewBox="0 0 20 14" fill="none" xmlns="http://www.w3.org/2000/svg">
<path d="M0 1.22705C0 0.717306 0.447715 0.304077 1 0.304077H19C19.5523 0.304077 20 0.717308 20 1.22705C20 1.7368 19.5523 2.15002 19 2.15002L1 2.15002C0.447715 2.15002 0 1.73679 0 1.22705Z" fill="#121127"/>
<path d="M0 6.76489C0 6.25514 0.447715 5.84192 1 5.84192L19 5.84192C19.5523 5.84192 20 6.25515 20 6.76489C20 7.27463 19.5523 7.68786 19 7.68786L1 7.68786C0.447715 7.68786 0 7.27463 0 6.76489Z" fill="#121127"/>
<path d="M1 11.3798C0.447715 11.3798 0 11.793 0 12.3027C0 12.8125 0.447715 13.2257 1 13.2257L19 13.2257C19.5523 13.2257 20 12.8125 20 12.3027C20 11.793 19.5523 11.3798 19 11.3798L1 11.3798Z" fill="#121127"/>
</svg>
